<?xml version="1.0" encoding="utf-8"?>
<!-- Generator: Adobe Illustrator 21.0.0, SVG Export Plug-In . SVG Version: 6.00 Build 0)  -->
<svg version="1.1" id="レイヤー_1" xmlns="http://www.w3.org/2000/svg" xmlns:xlink="http://www.w3.org/1999/xlink" x="0px"
	 y="0px" viewBox="0 0 399.6 62.5" style="enable-background:new 0 0 399.6 62.5;" xml:space="preserve">
<style type="text/css">
	.st0{fill:#FF1A33;}
</style>
<path class="st0" d="M64.5,31.3c-2-7.1-10.7-10.5-8.3-8c1.5,1.6,2.9,3.6,3.5,5.7c2.8,10-7.7,21.5-23.1,25.9C21.2,59.2,6.2,55,3.3,45
	c-0.6-2.1-0.5-4.5,0-6.7c0.8-3.4-4.9,4-2.8,11.1c3.3,11.6,19.3,16.1,37.2,11C55.7,55.4,67.8,42.9,64.5,31.3z"/>
<path class="st0" d="M39.7,42.4c21.1-10.3,7-32.1,16.7-42.4c0,0-8.9-0.4-11.5,4.8C42.2,10.1,51.1,27.2,39.7,42.4z"/>
<path class="st0" d="M33,43.1c0.8-0.5,1.6-1.4,2.5-2.5c4.9-6.9-2.6-25,5.4-36.6c-22.8,9.1-5.6,41.4-15.6,36.8
	c-1.9-1.1-3.6-2.9-4.5-5.9c-1.7-5.4-2.7-19.2,7.2-27.3C20,9.9,12.9,16,11.7,23c-1.3,7.4,1.7,15.3-3.2,21.2
	C18.7,46.8,27.1,47.6,33,43.1z"/>
<path class="st0" d="M81.2,39.3c0-5.9,1.7-10.6,5.1-14.3c3.4-3.6,7.5-5.4,12.3-5.4c4.1,0,7.4,1.3,10,4s3.9,6.3,3.9,10.8
	c0,3.2-0.7,6.2-2,8.9c-1,2.1-2.2,3.8-3.7,5.3s-3.1,2.6-4.8,3.5c-2.3,1.1-4.6,1.6-7.2,1.6s-5-0.6-7.2-1.9c-2.2-1.3-3.8-3-4.9-5.3
	C81.8,44.2,81.2,41.8,81.2,39.3z M85.6,39.5c0,1.9,0.4,3.7,1.2,5.3c0.8,1.6,2,2.9,3.6,3.8c1.6,0.9,3.3,1.4,5,1.4s3.3-0.4,4.8-1.2
	s2.9-1.9,4.1-3.3c1.2-1.4,2.2-3.2,2.9-5.3c0.7-2.1,1-4.1,1-6.2c0-3.3-0.9-5.9-2.8-7.8c-1.8-1.9-4.1-2.9-6.8-2.9
	c-3.4,0-6.5,1.5-9.1,4.4C86.9,30.6,85.6,34.5,85.6,39.5z"/>
<path class="st0" d="M116.1,53.1l5-23.9h3.7l-0.9,4.2c1.6-1.6,3.1-2.8,4.5-3.6c1.4-0.7,2.8-1.1,4.3-1.1c1.9,0,3.4,0.5,4.6,1.6
	c1.1,1,1.7,2.4,1.7,4.2c0,0.9-0.2,2.3-0.6,4.2l-3,14.4h-4.1l3.2-15.1c0.3-1.5,0.5-2.6,0.5-3.3c0-0.8-0.3-1.4-0.8-1.9
	s-1.3-0.7-2.4-0.7c-2.1,0-3.9,0.7-5.6,2.2c-1.6,1.5-2.8,4.1-3.6,7.7l-2.5,11.1H116.1z"/>
<path class="st0" d="M143.5,44.9l4.1-0.2c0,1.2,0.2,2.2,0.5,3c0.4,0.8,1,1.5,2,2s2.1,0.8,3.4,0.8c1.8,0,3.1-0.4,4-1.1
	c0.9-0.7,1.4-1.6,1.4-2.5c0-0.7-0.3-1.4-0.8-2c-0.6-0.6-1.9-1.4-4.1-2.3c-2.1-0.9-3.5-1.6-4.1-1.9c-1-0.6-1.8-1.3-2.3-2.2
	c-0.5-0.8-0.8-1.8-0.8-2.9c0-1.9,0.8-3.5,2.2-4.9c1.5-1.4,3.6-2,6.3-2c3,0,5.3,0.7,6.8,2.1c1.6,1.4,2.4,3.2,2.4,5.5l-4,0.3
	c-0.1-1.4-0.6-2.6-1.5-3.4c-1-0.8-2.3-1.3-4.1-1.3c-1.4,0-2.5,0.3-3.3,1c-0.8,0.6-1.2,1.3-1.2,2.1c0,0.7,0.3,1.4,1,2
	c0.4,0.4,1.6,1,3.5,1.8c3.1,1.4,5.1,2.4,5.9,3.2c1.3,1.2,1.9,2.8,1.9,4.5c0,1.2-0.4,2.3-1.1,3.5c-0.7,1.1-1.8,2-3.3,2.7
	s-3.2,1-5.3,1c-2.8,0-5.1-0.7-7-2C144.3,50.2,143.4,48,143.5,44.9z"/>
<path class="st0" d="M185.8,44.9l4,0.4c-0.6,2-1.9,3.8-3.9,5.6s-4.5,2.7-7.3,2.7c-1.8,0-3.4-0.4-4.9-1.2s-2.6-2-3.4-3.6
	c-0.8-1.6-1.2-3.3-1.2-5.3c0-2.6,0.6-5.1,1.8-7.6c1.2-2.4,2.8-4.3,4.7-5.5s4-1.8,6.2-1.8c2.8,0,5.1,0.9,6.8,2.7
	c1.7,1.8,2.6,4.2,2.6,7.2c0,1.2-0.1,2.4-0.3,3.6h-17.6c-0.1,0.5-0.1,0.9-0.1,1.3c0,2.2,0.5,3.9,1.5,5.1c1,1.2,2.3,1.8,3.8,1.8
	c1.4,0,2.8-0.5,4.1-1.4C184,48,185.1,46.7,185.8,44.9z M174,39h13.4c0-0.4,0-0.7,0-0.9c0-2-0.5-3.6-1.5-4.7c-1-1.1-2.3-1.6-3.9-1.6
	c-1.7,0-3.3,0.6-4.8,1.8C175.8,34.8,174.7,36.6,174,39z"/>
<path class="st0" d="M194.7,53.1l5-23.9h3.7l-0.9,4.2c1.6-1.6,3.1-2.8,4.5-3.6c1.4-0.7,2.8-1.1,4.3-1.1c1.9,0,3.4,0.5,4.6,1.6
	c1.1,1,1.7,2.4,1.7,4.2c0,0.9-0.2,2.3-0.6,4.2l-3,14.4h-4.1l3.2-15.1c0.3-1.5,0.5-2.6,0.5-3.3c0-0.8-0.3-1.4-0.8-1.9
	s-1.3-0.7-2.4-0.7c-2.1,0-3.9,0.7-5.6,2.2c-1.6,1.5-2.8,4.1-3.6,7.7l-2.3,11.1H194.7z"/>
<path class="st0" d="M238.6,19.9h6.8L241.7,38l-0.9,4.5c-0.1,0.4-0.1,0.7-0.1,1.1c0,1.3,0.5,2.4,1.4,3.3c1,0.9,2.4,1.3,4.2,1.3
	c1.7,0,3-0.3,4.1-0.9c1.1-0.6,1.9-1.5,2.5-2.8c0.6-1.2,1.2-3.3,1.8-6.3l3.8-18.2h6.9l-3.8,18.2c-0.8,3.8-1.7,6.8-2.8,8.8
	c-1,2-2.6,3.7-4.8,5c-2.1,1.3-4.8,1.9-8.1,1.9c-3.9,0-6.9-1-8.9-2.9c-2.1-1.9-3.1-4.3-3.1-7.3c0-0.6,0.1-1.3,0.2-2
	c0.1-0.5,0.3-1.9,0.8-4.1L238.6,19.9z"/>
<path class="st0" d="M269.7,53.2l7-33.4h6.8l-7,33.4H269.7z"/>
<g>
	<path class="st0" d="M338.5,33c-3.4,0-6.1,2.5-6.7,4.9h11.6C343.7,35.6,341.9,33,338.5,33z"/>
	<path class="st0" d="M303.5,19.8l-7.1,33.4h96.1l7.1-33.4H303.5z M316.7,48.2l-3.4-17.5h3.5l2.4,13.3l7.3-13.3h3.5l-10,17.5H316.7z
		 M336.2,45.9c2.4,0,4.3-1.1,5.6-3h3.5c-1.2,1.9-2.7,3.4-4.3,4.3c-1.7,1-3.5,1.5-5.3,1.5c-5.7,0-8.4-4.6-7.6-9.2
		c0.9-5,5.7-9.3,11-9.3c2.5,0,4.6,0.9,6,2.6c1.7,2.1,2,4.8,1.2,7.8h-15C330.8,44.1,333.6,45.9,336.2,45.9z M351.6,38.8l-1.7,9.5
		h-3.3l3.3-17.5h3.2l-0.5,2.6c1.4-2.1,3.4-3.1,5.8-3.1l-0.6,3.3h-0.2C354.2,33.5,352.3,35.3,351.6,38.8z M358.8,48.2h-3.5l0.8-4.2
		h3.5L358.8,48.2z M380.7,31.3c-0.5,2.6-2,4.6-5.1,7.1c-2.6,2.2-5.3,4.4-7.9,6.6h10.5l-0.6,3.2h-15.7l0.5-3c2.9-2.3,5.8-4.6,8.7-6.9
		c2.7-2.1,5.1-3.9,5.7-6.7c0.5-2.7-1-4.3-3.3-4.3c-2.5,0-4.4,2.1-5,5.2h-3.6c0.5-2.1,1.3-4,2.9-5.7c2.2-2.3,5-2.8,6.7-2.8
		C379.2,23.9,381.5,27.3,380.7,31.3z"/>
</g>
</svg>
